<svg id="Layer_1" data-name="Layer 1" xmlns="http://www.w3.org/2000/svg" viewBox="0 0 99.48 99.48"><g id="layers"><path id="Path_150" data-name="Path 150" d="M21,49.74,3.54,59.05a3,3,0,0,0-1.22,4,3,3,0,0,0,1.22,1.23L48.33,88.2a3,3,0,0,0,2.81,0L95.93,64.32a3,3,0,0,0,1.22-4,2.93,2.93,0,0,0-1.22-1.22L78.49,49.74l-6.35,3.38,16,8.56L49.74,82.18,11.29,61.68l16.06-8.56L21,49.74Z" style="fill:#fff;fill-rule:evenodd"/><path id="Path_151" data-name="Path 151" d="M48.34,11.27a3,3,0,0,1,2.8,0l44.8,23.89a3,3,0,0,1,0,5.27L51.14,64.32a3,3,0,0,1-2.8,0L3.56,40.43a3,3,0,0,1,0-5.27L48.35,11.27Zm-37,26.52L49.74,58.3,88.19,37.79,49.74,17.29,11.29,37.79Z" style="fill:#fff;fill-rule:evenodd"/></g></svg>