<svg id="Layer_1" data-name="Layer 1" xmlns="http://www.w3.org/2000/svg" viewBox="0 0 99.48 99.48"><g id="layers-fill"><path id="Path_152" data-name="Path 152" d="M48.34,11.68a3,3,0,0,1,2.77,0L95.43,35.32a3,3,0,0,1,0,5.21L51.11,64.16a3,3,0,0,1-2.77,0L4,40.53a3,3,0,0,1-1.22-4A2.91,2.91,0,0,1,4,35.32L48.35,11.68Z" style="fill:#338abe;fill-rule:evenodd"/><path id="Path_153" data-name="Path 153" d="M45.57,69.37,15,53.09h0L4,59a3,3,0,0,0-1.22,4A3,3,0,0,0,4,64.16L48.35,87.79a2.92,2.92,0,0,0,2.78,0L95.44,64.16a3,3,0,0,0,0-5.21l-11-5.86L53.9,69.37a8.84,8.84,0,0,1-8.33,0" style="fill:#338abe;fill-rule:evenodd"/></g></svg>