<svg id="Layer_1" data-name="Layer 1" xmlns="http://www.w3.org/2000/svg" viewBox="0 0 99.48 99.48"><g id="layers-fill"><path id="Path_152" data-name="Path 152" d="M48.29,10.29a3.06,3.06,0,0,1,2.88,0L97.1,34.79a3.07,3.07,0,0,1,0,5.4L51.17,64.69a3.12,3.12,0,0,1-2.88,0L2.37,40.19a3.06,3.06,0,0,1-1.26-4.14,3,3,0,0,1,1.26-1.26L48.3,10.29Z" style="fill:#338abe;fill-rule:evenodd"/><path id="Path_153" data-name="Path 153" d="M45.41,70.09,13.76,53.21h0L2.37,59.29a3.06,3.06,0,0,0-1.26,4.14,3.12,3.12,0,0,0,1.26,1.26L48.3,89.18a3.06,3.06,0,0,0,2.88,0L97.11,64.69a3.07,3.07,0,0,0,1.25-4.15,3,3,0,0,0-1.25-1.25L85.72,53.21,54.05,70.09a9.22,9.22,0,0,1-8.63,0" style="fill:#338abe;fill-rule:evenodd"/></g><circle cx="78.48" cy="20.8" r="18.82" style="fill:#fff"/><g id="Group_241" data-name="Group 241"><path id="Icon_awesome-check-circle" data-name="Icon awesome-check-circle" d="M98.3,20.6a20,20,0,1,1-20-20h0A20,20,0,0,1,98.3,20.6ZM76,31.2,90.81,16.34a1.27,1.27,0,0,0,0-1.82L89,12.69a1.29,1.29,0,0,0-1.82,0L75,24.8l-5.65-5.65a1.29,1.29,0,0,0-1.83,0L65.74,21a1.29,1.29,0,0,0,0,1.83l8.39,8.4A1.3,1.3,0,0,0,76,31.2Z" style="fill:#f58a8c"/></g></svg>