<svg id="Layer_1" data-name="Layer 1" xmlns="http://www.w3.org/2000/svg" viewBox="0 0 99.48 99.48"><g id="layers"><path id="Path_150" data-name="Path 150" d="M20,49.74,1.85,59.39A3.11,3.11,0,0,0,.58,63.58a3.17,3.17,0,0,0,1.27,1.27L48.28,89.61a3.12,3.12,0,0,0,2.91,0L97.62,64.85a3.11,3.11,0,0,0,0-5.46L79.53,49.74,73,53.25,89.6,62.12,49.74,83.37,9.89,62.12l16.64-8.87L20,49.74Z" style="fill:#fff;fill-rule:evenodd"/><path id="Path_151" data-name="Path 151" d="M48.29,9.87a3,3,0,0,1,2.9,0L97.62,34.63a3.1,3.1,0,0,1,0,5.46L51.19,64.85a3.1,3.1,0,0,1-2.9,0L1.87,40.09a3.1,3.1,0,0,1,0-5.46L48.3,9.87ZM9.9,37.36,49.74,58.61,89.6,37.36,49.74,16.11,9.89,37.36Z" style="fill:#fff;fill-rule:evenodd"/></g><circle cx="78.27" cy="20.8" r="18.2" style="fill:#fff"/><g id="Group_241" data-name="Group 241"><path id="Icon_awesome-check-circle" data-name="Icon awesome-check-circle" d="M98.3,20.6a20,20,0,1,1-20-20h0A20,20,0,0,1,98.3,20.6ZM76,31.2,90.81,16.34a1.27,1.27,0,0,0,0-1.82L89,12.69a1.29,1.29,0,0,0-1.82,0L75,24.8l-5.65-5.65a1.29,1.29,0,0,0-1.83,0L65.74,21a1.29,1.29,0,0,0,0,1.83l8.39,8.4A1.3,1.3,0,0,0,76,31.2Z" style="fill:#f58a8c"/></g></svg>